<?xml version="1.0" encoding="utf-8"?>
<!-- Generator: Adobe Illustrator 22.1.0, SVG Export Plug-In . SVG Version: 6.00 Build 0)  -->
<svg version="1.1" id="Слой_1" xmlns="http://www.w3.org/2000/svg" xmlns:xlink="http://www.w3.org/1999/xlink" x="0px" y="0px"
	 viewBox="0 0 100.2 100.2" style="enable-background:new 0 0 100.2 100.2;" xml:space="preserve">
<style type="text/css">
	.st0{fill:#FCA84E;}
	.st1{fill:#FEE094;}
	.st2{fill:#DF302D;}
	.st3{fill:#FEFEE2;}
	.st4{fill:#030101;}
	.st5{fill:#020101;}
	.st6{fill:#050101;}
	.st7{fill:#00B700;}
	.st8{fill:#FCFDE1;}
	.st9{fill:#FBFCE2;}
	.st10{fill:#01B701;}
	.st11{fill:#FBFEE1;}
	.st12{fill:#AFBF73;}
	.st13{fill:#FADE94;}
	.st14{fill:#F8DD9A;}
	.st15{fill:#F9DE95;}
	.st16{fill:#FADE8F;}
	.st17{fill:#F8DE93;}
	.st18{fill:#FADD92;}
	.st19{fill:#F8DE95;}
	.st20{fill:#FBDE98;}
	.st21{fill:#F7D891;}
	.st22{fill:#F9DE92;}
</style>
<title>logo</title>
<path class="st0" d="M52.8,0c1.4,0.2,2.8,0.3,4.2,0.5c7.9,1.1,15.5,4.1,22,8.7c2.5,1.7,4.8,3.7,6.9,5.9c6.8,7.3,11.5,15.7,13.2,25.6
	C101.7,56.2,98,70,88,82c-7.4,9.1-17.9,15-29.5,16.8c-15.8,2.6-30-1.3-42-12.1C8.1,79.3,2.4,69.1,0.7,57.9c-0.3-1.7-0.3-3.5-0.6-5.2
	v-5.8c0.2-1.3,0.1-2.7,0.3-4c0.6-4.7,2-9.4,4-13.7c2.1-4.4,4.8-8.6,8-12.3c3.9-4.5,8.6-8.3,13.8-11.1C31.4,2.9,37.3,1,43.3,0.2
	c1.3-0.2,2.6-0.1,3.8-0.2H52.8z"/>
<path class="st1" d="M4.3,50.1C4.3,24.8,24.7,4.3,50,4.3c25.2,0.1,45.6,21,45.4,46.2c-0.2,24.4-20.1,45.7-46.2,45.4
	C24.4,95.6,4.3,75,4.3,50.1z"/>
<path class="st2" d="M75.9,48.9c0.3-1,0.7-1.9,1.2-2.8c1.2-1.8,3.2-2.9,5.3-3c0.7,0,1.3,0,2,0c1.1,0,2.2,0.5,2.9,1.3
	c2.3,2.7,3,6.4,0.9,9.4c-1,1.4-2.5,2.4-4.2,2.7c-0.2,0-0.3,0-0.4,0.2c-0.5,0.2-1.1,0.2-1.5-0.1c-0.6-0.2-1.3-0.3-1.9-0.5
	c-2.1-0.8-3.6-2.6-4-4.8c-0.1-0.2-0.2-0.3-0.3-0.4C75.7,50.2,75.7,49.5,75.9,48.9z"/>
<path class="st2" d="M55.8,87c-4.3,0.2-6.4-3.3-6.7-6.3c-0.3-3.7,2.4-6.9,6.1-7.2c0.2,0,0.5,0,0.7,0c3.5,0.1,6.8,2.3,6.7,6.5
	S59.7,87,55.8,87z"/>
<path class="st2" d="M32.4,26.3c-3.7,0-6.7-2.9-6.7-6.6c0,0,0-0.1,0-0.1c0.1-4.1,2.9-6.9,6.7-6.9s6.7,2.9,6.8,6.9
	c0,3.7-3,6.7-6.6,6.7C32.5,26.3,32.4,26.3,32.4,26.3z"/>
<path class="st2" d="M69.4,50.9c-0.5,0.7-0.5,1.5-0.9,2.3c-1.7,3.3-5.8,4.6-9.1,2.8c-2.6-1.4-4-4.2-3.5-7.1c0.4-3.6,3.7-6.2,7.4-5.8
	c1,0.1,2,0.5,2.8,1c0.2,0.1,0.4,0.2,0.5,0.2l0,0c1.3,1.1,2.2,2.7,2.5,4.4c0,0,0.1,0.1,0.2,0.1C69.6,49.5,69.6,50.2,69.4,50.9z"/>
<path class="st2" d="M45.8,66.7c-3.7,0.1-6.7-2.9-6.8-6.6c0-0.1,0-0.2,0-0.3c0-3.6,2.9-6.6,6.5-6.6c0.1,0,0.2,0,0.3,0
	c3.7,0.1,6.6,3,6.7,6.7c0,3.7-2.9,6.7-6.6,6.7C45.9,66.7,45.9,66.7,45.8,66.7z"/>
<path class="st2" d="M72.5,33c-3.7,0-6.7-3.1-6.7-6.8c0-3.7,3.1-6.7,6.8-6.7s6.7,3.1,6.7,6.8C79.3,30.1,76.2,33.1,72.5,33z"/>
<path class="st2" d="M19.8,31.2c1.2,0.7,2,1.8,2.3,3.1c1.1,3.1-0.3,6.5-3.2,8c-2.8,1.5-6.3,0.9-8.4-1.6c-1.7-1.9-2.1-4.7-1-7
	c0.9-2.4,3.2-3.9,5.7-4c1.3-0.1,2.6,0.1,3.7,0.7C19.3,30.6,19.4,31.1,19.8,31.2z"/>
<path class="st2" d="M39.1,73.3c0.1,3.6-2.8,6.7-6.5,6.8c-0.1,0-0.2,0-0.2,0c-3.6,0.1-6.6-2.7-6.7-6.3c0-0.1,0-0.3,0-0.4
	c0-3.4,2.6-6.3,6.1-6.7c3.7-0.4,6.9,2.3,7.3,5.9C39.1,72.9,39.1,73.1,39.1,73.3z"/>
<path class="st2" d="M15.7,66.7C12,66.7,9,63.8,9,60.2c0,0,0,0,0,0c-0.2-3.7,2.7-6.9,6.4-7c3.7-0.2,6.9,2.7,7,6.4c0,0.2,0,0.3,0,0.5
	c0.1,3.7-2.8,6.7-6.5,6.7C15.8,66.7,15.7,66.7,15.7,66.7z"/>
<path class="st2" d="M39.2,49c-0.8,0.1-1.5,0.6-2.3,0.7c-3.7,0.6-7.2-1.9-7.8-5.5c-0.1-0.8-0.1-1.6,0-2.3c0.5-2.8,2.7-5,5.5-5.4
	c3.7-0.6,7.2,1.9,7.8,5.6c0.2,1.3,0,2.7-0.5,3.9c-0.1,0.2-0.4,0.4-0.1,0.7C40.9,47.3,40,48.1,39.2,49z"/>
<path class="st2" d="M69.3,60.9c3.2-1.9,7.3-0.8,9.2,2.4s0.8,7.3-2.4,9.2c-0.1,0.1-0.3,0.2-0.4,0.2c-2.5,1.3-5.5,0.9-7.6-0.9
	c-2.3-2-2.9-5.3-1.6-8c0.1-0.3,0.2-0.6,0.6-0.6c0.8-0.3,1.4-1,1.7-1.8C68.9,61.2,69.1,61,69.3,60.9z"/>
<path class="st2" d="M61.5,16.5c-1.9,3.1-6.1,4.1-9.2,2.2c-0.7-0.4-1.3-1-1.8-1.6c-1.6-2.1-1.9-4.9-0.8-7.3c0.9-1.9,2.7-3.3,4.8-3.5
	c3.1-0.7,6.3,0.9,7.7,3.8c0.4,0.8,0.5,1.8,0.4,2.7c-0.2,0.4-0.6,0.4-0.9,0.4c-0.8,0.1-1.5,0.6-1.9,1.3c-0.3,0.6-0.2,0.9,0.5,1.1
	c0.3,0,0.6,0.1,0.9,0.2C61.5,15.9,61.8,16,61.5,16.5z"/>
<path class="st2" d="M61.4,28.9c0.2,0.9,0.9,1.6,1.1,2.6c0.9,3.6-1.4,7.2-5,8.1c-0.5,0.1-1,0.2-1.5,0.2c-3.1,0.1-5.8-1.9-6.6-4.9
	c-1-3.5,1.1-7.2,4.6-8.2c0.1,0,0.3-0.1,0.4-0.1c0.5-0.1,1-0.2,1.5-0.2c0.3,0.2,0.3,0.4,0.3,0.7c0.4,1.7,2.1,2.8,3.8,2.4
	c0.3-0.1,0.5-0.1,0.7-0.3C60.9,29,61.1,28.8,61.4,28.9z"/>
<path class="st3" d="M69.3,75.1c1.7-0.1,3.3,0.7,4.3,2c0.4,0.6,0.6,1.2,0.6,1.9c0.1,0.4-0.3,0.6-0.7,0.5c-0.8,0-1.6,0.1-2.4,0.3
	c-0.5,0.1-0.5,0.3-0.5,0.8c0.2,1.2,0.3,2.3,0.4,3.5c0.1,0.9-0.2,1-1.4,1.2c-0.8,0.1-1.2-0.2-1.2-1c0-1.1-0.4-2.1-0.4-3.2
	c0-0.6-0.3-0.8-0.9-0.8c-0.7,0.2-1.4,0.3-2.2,0.4c-0.6,0-0.8-0.1-0.9-0.8c0-1.8,1-3.5,2.7-4.2C67.7,75.1,68.5,75,69.3,75.1z"/>
<path class="st3" d="M66.7,44.4c0-1.3,0.2-2.5,0.7-3.7c0.4-1.3,0.2-1.8-1.2-1.8c-0.5-0.1-1-0.2-1.5-0.4c-0.5-0.2-0.5-0.6-0.3-1
	c0.5-1.1,1.4-2,2.6-2.3c1.4-0.6,2.9-0.5,4.2,0.2c2.3,1.2,3,2.3,3,4.7c0,0.7-0.3,1.1-1,1c-0.6-0.1-1.1-0.3-1.6-0.5
	c-0.9-0.4-1.2-0.2-1.6,0.7s-0.4,2.2-1,3.1c-0.2,0.3-0.3,0.6-0.8,0.3S67.2,44.4,66.7,44.4L66.7,44.4z"/>
<path class="st3" d="M19.8,31.2c-0.7,0.2-0.6-0.5-0.9-0.8c-0.2-1-0.4-2-0.7-2.9c0-0.5-0.4-0.8-0.8-0.9c-0.2,0-0.4,0.1-0.5,0.2
	c-0.6,0.4-1.4,0.2-2,0.5s-0.8-0.3-0.8-0.8c0-2.9,1.2-4.7,4.4-5.2c1.4-0.3,2.9,0.1,4.1,0.9c0.7,0.6,1.2,1.3,1.4,2.2
	c0.1,0.3,0,0.5-0.4,0.6c-0.9,0.2-1.8,0.5-2.7,0.7c-0.4,0.1-0.5,0.3-0.3,0.7c0.4,1,0.6,2.1,0.9,3.2c0.2,1-0.2,1.5-1.2,1.4
	C20,31.1,19.9,31.1,19.8,31.2z"/>
<path class="st3" d="M37.5,33.4c-0.2-2.5,1.6-4.7,4.1-4.9c0.4,0,0.8,0,1.3,0.1c0.3,0.1,0.5,0.3,0.4,0.6c-0.1,0.6-0.2,1.1-0.3,1.7
	c-0.2,1-0.2,1.2,0.9,1.4c0.9,0.2,1.8,0.4,2.8,0.4c0.8,0,1,0.3,0.9,1.3c-0.1,0.8-0.6,1.2-1.2,1c-0.9-0.3-1.9-0.3-2.8-0.6
	c-1.1-0.3-1.4-0.1-1.5,1.1c0,0.5-0.1,0.9-0.2,1.3s-0.3,0.6-0.8,0.6c-1.4-0.1-2.6-1-3.1-2.3C37.5,34.7,37.4,34,37.5,33.4z"/>
<path class="st4" d="M32.7,29.7c1.5,0,2.9,0.8,3.6,2.2c0.4,0.8,0.4,1.7,0,2.5c-1.5,2.2-4.4,2.8-6.6,1.3c-0.3-0.2-0.5-0.4-0.8-0.6
	c-1.1-1.1-1-2.9,0.1-4c0,0,0.1-0.1,0.1-0.1C30.2,30,31.4,29.6,32.7,29.7z"/>
<path class="st4" d="M42.5,83.5c0,1.9-1.5,3.3-3.3,3.3c-1.9,0-3.4-1.5-3.4-3.3s1.5-3.3,3.4-3.3C41,80.2,42.5,81.7,42.5,83.5z"/>
<path class="st4" d="M69.4,50.9c-0.2-0.7-0.2-1.3,0-2c0.4-1.8,2.2-2.9,4-2.5c1.2,0.3,2.2,1.3,2.5,2.5c0.2,0.7,0.2,1.3,0,2
	c-0.4,1.5-1.7,2.5-3.3,2.5C71.1,53.4,69.8,52.3,69.4,50.9z"/>
<path class="st5" d="M22.3,53.3c-1.8,0-3.3-1.5-3.3-3.3c0,0,0-0.1,0-0.1c-0.1-1.9,1.3-3.4,3.2-3.5c1.9-0.1,3.4,1.3,3.5,3.2
	c0,0.1,0,0.2,0,0.4c0,1.8-1.4,3.4-3.2,3.4C22.4,53.3,22.4,53.3,22.3,53.3z"/>
<path class="st4" d="M39.2,49c0.8-0.9,1.3-2.3,2.7-2.5c1.8-0.3,3.5,0.8,3.9,2.6c0,0,0,0,0,0c0.5,1.8-0.7,3.7-2.5,4.1
	s-3.7-0.7-4.1-2.5C39,50.2,39,49.6,39.2,49z"/>
<path class="st4" d="M82,56.7c0.5-0.1,1,0,1.5,0.1c1.8,0.5,2.9,2.3,2.4,4.1c-0.5,1.8-2.3,2.9-4.1,2.4c-0.9-0.2-1.7-0.8-2.1-1.7
	C78.6,59.7,79.7,57.5,82,56.7z"/>
<path class="st4" d="M25.7,66.7c-1.8,0-3.3-1.4-3.4-3.2c0-0.1,0-0.2,0-0.2c0.1-1.8,1.7-3.2,3.6-3.1c1.7,0.1,3.1,1.5,3.1,3.3
	C29.1,65.2,27.6,66.7,25.7,66.7C25.8,66.7,25.7,66.7,25.7,66.7z"/>
<path class="st5" d="M55.9,63.4c1.8,0,3.3,1.4,3.3,3.3c0,0,0,0.1,0,0.1c0.1,1.8-1.4,3.4-3.2,3.5s-3.4-1.4-3.5-3.2c0-0.1,0-0.2,0-0.3
	C52.5,64.8,54,63.4,55.9,63.4C55.8,63.4,55.9,63.4,55.9,63.4z"/>
<path class="st6" d="M61.4,28.9c-1.5,1.2-3.6,0.9-4.8-0.6c-0.5-0.6-0.7-1.3-0.7-2c0-1.7,1.3-3.1,3.1-3.3c1.8-0.2,3.5,1.2,3.7,3
	C62.7,27.1,62.2,28.2,61.4,28.9L61.4,28.9z"/>
<path class="st4" d="M42.5,26.3c-1.9,0-3.4-1.5-3.4-3.3c0-1.9,1.5-3.4,3.3-3.4c1.9,0,3.4,1.5,3.4,3.3c0,0,0,0.1,0,0.1
	C45.8,24.8,44.3,26.3,42.5,26.3C42.5,26.3,42.5,26.3,42.5,26.3z"/>
<path class="st7" d="M89.4,35.5c0.1,0.7-0.2,1.4-0.6,2c-0.4,0.5-0.7,0.5-1,0c-0.6-1-1.1-2.1-1.7-3.1c-1-1.6-1.8-3.3-2.6-4.9
	c-0.2-0.4-0.8-1-0.4-1.4s1-0.1,1.4,0.1c2.2,0.8,3.4,2.6,4.3,4.5C89.2,33.6,89.4,34.5,89.4,35.5z"/>
<path class="st7" d="M52,70.1c0.6,0,1.1,0.1,1.6,0.4c0.4,0.3,0.6,0.6,0,0.9c-2.5,1.4-5,2.9-7.5,4.4l-1.2,0.7
	c-0.6,0.3-0.7,0.1-0.8-0.5c0-0.7,0.2-1.4,0.7-1.9C46.5,71.7,49.1,70.3,52,70.1z"/>
<path class="st7" d="M54.2,45.3c0,0.3,0.1,0.8-0.3,1s-0.6-0.2-0.9-0.4L44.8,41c-0.2-0.1-0.5-0.1-0.5-0.5c0-0.4,0.3-0.6,0.7-0.7
	c1.2-0.2,2.3-0.2,3.5,0.3c2.1,0.7,4,2.1,5.3,3.9C54.1,44.3,54.3,44.8,54.2,45.3z"/>
<path class="st7" d="M36.5,9.4c2.9,0.6,5.5,1.8,7.3,4.5c0.2,0.3,0.3,0.6,0.3,0.9c0.1,0.4,0.2,0.9-0.2,1.2c-0.4,0.3-0.7-0.2-1-0.4
	c-2.7-1.6-5.3-3.2-8-4.8c-0.2-0.1-0.7-0.2-0.6-0.6s0.5-0.5,0.8-0.6C35.5,9.5,36,9.4,36.5,9.4z"/>
<path class="st8" d="M69.3,60.9c-0.1,0.8-0.6,1.6-1.2,2.1c-0.3,0.2-0.5,0.4-0.9,0.3c-0.2-0.4-0.4-0.7-0.5-1.2
	c-0.1-0.9-0.7-0.8-1.3-0.6c-0.5,0.1-1.1,0.4-1.5,0.7c-0.3,0.3-0.8,0.3-0.9-0.1s-0.9-0.9,0-1.4c0.6-0.3,1.3-0.7,1.9-0.9
	c0.6-0.2,0.5-0.5,0.3-0.9L65,58.2c-0.2-0.4-0.4-0.9-0.1-1.2c0.4-0.4,1-0.5,1.5-0.3C68.6,57.5,69.2,58.5,69.3,60.9z"/>
<path class="st7" d="M77.7,75.8c0-0.7,0.3-1.4,0.8-1.8c1.8-2.3,4.6-3.7,7.5-3.9c0.1,0,0.1,0,0.2,0c0.5,0.2,1.2,0.1,1.3,0.6
	s-0.6,0.6-0.9,0.8c-2.6,1.6-5.3,3.3-7.9,4.9c-0.2,0.1-0.4,0.5-0.7,0.3S77.7,76.1,77.7,75.8z"/>
<path class="st9" d="M61.5,16.5c0.1-0.3,0-0.5-0.3-0.6c-0.3,0-0.5,0-0.8-0.1c-0.4-0.1-1,0-1.1-0.5c-0.1-0.5,0.1-1,0.5-1.4
	c0.5-0.7,1.3-1.1,2.1-1.1c0.2,0,0.5,0,0.6-0.2c0.9,0.1,1.8,0.5,2.5,1.2c0.4,0.4,0.7,0.9,0.8,1.5c0.2,1.2,0,1.4-1.2,1.1
	c-1-0.3-1.2-0.1-1.4,0.9c-0.2,0.5-0.3,1-0.3,1.6c0,1-0.7,0.6-1.2,0.7c-0.7,0-0.5-0.5-0.5-0.9C61.3,17.9,61.4,17.2,61.5,16.5z"/>
<path class="st10" d="M22.5,82.7c-2.8-1.6-5.6-3.4-8.4-5.2c1.7-1.4,3.3-0.8,4.7-0.2c1.9,0.8,3.5,2.1,4.7,3.7
	c0.2,0.3,0.3,0.7,0.4,1.1C23.9,83.3,23.8,83.4,22.5,82.7z"/>
<path class="st11" d="M32.7,56.7c1.2-0.1,2.4,0.6,2.9,1.7c0.2,0.4,0.2,0.8-0.4,0.9c-0.4,0.1-0.7,0.4-1.1,0.3c-0.3,0-0.4,0.2-0.4,0.4
	c-0.1,0.6,0,1.3,0.3,1.9c0.2,0.3,0.5,0.8-0.1,1.1c-0.9,0.4-1.3,0.2-1.5-0.6c-0.2-0.5-0.3-1-0.4-1.6c-0.1-0.6-0.4-0.7-0.9-0.5
	s-1.2,0.6-1.7,0.1s-0.2-1.4,0-1.9c0.4-0.8,1.1-1.4,2-1.6C31.7,56.8,32.2,56.7,32.7,56.7z"/>
<path class="st12" d="M22.5,82.7c0,0,0.1,0,0.2,0c0.7,0.4,1.1,0.3,1.2-0.5c0.4,0.4,0.1,0.9-0.1,1.3s-0.4,0.3-0.5,0.1
	S22.7,83,22.5,82.7z"/>
<path class="st13" d="M32.4,34.2c-0.7,0-1.3-0.5-1.3-1.2c0.1-0.7,0.8-1.2,1.5-1.1c0,0,0,0,0,0c0.7,0,1.2,0.5,1.3,1.2
	C33.7,33.7,33.1,34.2,32.4,34.2z"/>
<path class="st14" d="M40.2,83.7c0,0.6-0.4,1-1,1c0,0,0,0-0.1,0c-0.7,0-1.2-0.6-1.1-1.3c0-0.6,0.5-1,1-1.1
	C39.7,82.3,40.2,82.9,40.2,83.7z"/>
<path class="st15" d="M73.7,49.9c0.1,0.6-0.4,1.1-1,1.2c-0.1,0-0.1,0-0.2,0c-0.8,0-1-0.5-1-1.2c-0.1-0.6,0.4-1.1,1-1.2
	c0,0,0.1,0,0.1,0C73.2,48.6,73.7,49.2,73.7,49.9C73.7,49.8,73.7,49.8,73.7,49.9z"/>
<path class="st16" d="M21.3,49.9c-0.1-0.5,0.2-1.1,0.8-1.2c0.1,0,0.1,0,0.2,0c0.6-0.1,1.1,0.3,1.2,0.9c0,0.1,0,0.2,0,0.3
	c0,0.7-0.3,1.1-1,1.2S21.3,50.6,21.3,49.9z"/>
<path class="st17" d="M43.5,49.9c0.1,0.5-0.3,1.1-0.8,1.1c-0.1,0-0.2,0-0.2,0c-0.7,0-1.1-0.5-1.1-1.2c-0.1-0.5,0.3-1,0.9-1.1
	c0.1,0,0.1,0,0.2,0C43.1,48.6,43.5,49.2,43.5,49.9z"/>
<path class="st18" d="M83.8,60c0,0.6-0.4,1.1-1,1.2c-0.6,0-1.1-0.4-1.1-1c0,0,0-0.1,0-0.1c0-0.6,0.4-1,0.9-1.1c0,0,0.1,0,0.1,0
	c0.5-0.1,1.1,0.3,1.1,0.8C83.7,59.8,83.8,59.9,83.8,60z"/>
<path class="st19" d="M26.8,63.3c0.1,0.6-0.4,1.1-1,1.2c0,0-0.1,0-0.1,0c-0.5,0.1-1-0.4-1.1-0.9c0-0.1,0-0.1,0-0.2
	c0-0.6,0.4-1.1,1-1.1c0,0,0.1,0,0.1,0C26.3,62.2,26.8,62.7,26.8,63.3z"/>
<path class="st20" d="M57,66.7c0.1,0.6-0.4,1.1-1,1.2c-0.1,0-0.1,0-0.2,0c-0.6,0-1-0.5-1-1.1c0,0,0-0.1,0-0.1c0.1-0.6,0.6-1,1.2-1
	C56.5,65.8,56.9,66.2,57,66.7L57,66.7z"/>
<path class="st21" d="M59.3,25.2c0.6,0,1,0.4,1,1c0,0.5-0.2,1-0.9,1.1c-0.6,0-1.2-0.4-1.3-1C58.1,25.7,58.6,25.2,59.3,25.2
	C59.2,25.2,59.2,25.2,59.3,25.2z"/>
<path class="st22" d="M42.3,24.1c-0.6,0-1-0.5-1-1c0,0,0,0,0,0c-0.1-0.5,0.3-1,0.9-1.1c0,0,0.1,0,0.1,0c0.5-0.1,1,0.3,1.1,0.9
	c0,0.1,0,0.2,0,0.3C43.5,23.7,43.1,24.1,42.3,24.1z"/>
</svg>
